#!OML:ASF H:\Pregnant\Project 1\Capture day 1\Session 1\femalepreg.ASF
:FULLY-SPECIFIED
:DEGREES
250
root 2.72467 15.3563 32.5683 197.264 -86.6753 -176.68
lowerback -21.0225 -0.170512 -3.05109
upperback -5.60948 0.0177538 0.129205
thorax 5.62932 -0.180102 1.86672
lowerneck -19.4851 -0.941804 0.398141
upperneck 26.587 -2.50775 2.13122
head 12.0074 -0.939388 0.301868
rclavicle -8.64247e-015 1.09332e-014
rhumerus -37.6726 4.43346 -86.0141
rradius 31.1383
rwrist -8.55103
rhand -19.7038 -20.1209
rfingers 7.12502
rthumb 6.62576 -49.9972
lclavicle -8.64247e-015 1.09332e-014
lhumerus -40.578 -14.138 91.8284
lradius 33.8433
lwrist 41.1968
lhand -34.0939 1.31575
lfingers 7.12502
lthumb -7.2702 31.1709
rfemur -39.6546 15.2014 19.2281
rtibia 42.3165
rfoot -17.914 -15.0517
rtoes -1.06901
lfemur -27.7632 -9.32306 -25.2366
ltibia 17.8386
lfoot -8.08604 5.75314
ltoes -4.19973
251
root 2.72193 15.3636 32.5629 193.984 -86.6252 -173.438
lowerback -21.0602 -0.154752 -2.92025
upperback -5.62718 0.00185294 0.244577
thorax 5.63131 -0.187523 1.91227
lowerneck -19.444 -0.900766 0.421663
upperneck 26.6494 -2.44691 2.08018
head 12.0217 -0.917698 0.288408
rclavicle 1.05278e-014 -6.75868e-015
rhumerus -37.6047 4.53692 -85.9921
rradius 31.2299
rwrist -8.246
rhand -19.5617 -19.9354
rfingers 7.12502
rthumb 6.76291 -49.8074
lclavicle 1.05278e-014 -6.75868e-015
lhumerus -40.5906 -14.2612 92.073
lradius 33.9556
lwrist 41.2831
lhand -33.9255 1.34014
lfingers 7.12502
lthumb -7.10766 31.2008
rfemur -39.387 15.5088 19.3959
rtibia 41.9162
rfoot -17.7203 -15.2225
rtoes -1.03676
lfemur -27.7277 -9.61021 -24.9028
ltibia 17.89
lfoot -8.08597 6.17695
ltoes -4.25574
252
root 2.71912 15.3707 32.5567 191.159 -86.5567 -170.648
lowerback -21.1049 -0.131332 -2.80792
upperback -5.64158 0.00126232 0.341679
thorax 5.63951 -0.187756 1.95262
lowerneck -19.4114 -0.867465 0.448005
upperneck 26.7081 -2.40307 2.0465
head 12.0367 -0.900881 0.278225
rclavicle -8.19366e-015 -1.5704e-014
rhumerus -37.5434 4.63794 -85.9922
rradius 31.3391
rwrist -8.05019
rhand -19.4326 -19.812
rfingers 7.12502
rthumb 6.88754 -49.6799
lclavicle -8.19366e-015 -1.5704e-014
lhumerus -40.6057 -14.4497 92.3153
lradius 34.0751
lwrist 41.3432
lhand -33.7026 1.36494
lfingers 7.12502
lthumb -6.89252 31.2327
rfemur -39.1332 15.8646 19.5295
rtibia 41.5316
rfoot -17.5316 -15.4355
rtoes -0.957168
lfemur -27.6859 -9.88345 -24.5935
ltibia 17.9277
lfoot -8.08434 6.58712
ltoes -4.29913
253
root 2.71629 15.3778 32.5499 188.713 -86.4742 -168.231
lowerback -21.1603 -0.118443 -2.72137
upperback -5.65367 -0.00745649 0.436144
thorax 5.65601 -0.192368 2.00283
lowerneck -19.3955 -0.827258 0.492391
upperneck 26.7702 -2.35462 2.00994
head 12.0563 -0.880279 0.264544
rclavicle -5.09696e-015 8.64713e-015
rhumerus -37.4829 4.80754 -86.0339
rradius 31.4704
rwrist -7.99944
rhand -19.3476 -19.7636
rfingers 7.12502
rthumb 6.96957 -49.6289
lclavicle -5.09696e-015 8.64713e-015
lhumerus -40.6143 -14.6342 92.5326
lradius 34.1965
lwrist 41.3831
lhand -33.3833 1.36578
lfingers 7.12502
lthumb -6.5842 31.2434
rfemur -38.8983 16.2538 19.6385
rtibia 41.1627
rfoot -17.3423 -15.6838
rtoes -0.875663
lfemur -27.6384 -10.133 -24.3045
ltibia 17.9413
lfoot -8.07723 6.97249
ltoes -4.32221
254
root 2.7133 15.3848 32.5426 186.722 -86.3834 -166.263
lowerback -21.225 -0.0947167 -2.65174
upperback -5.66366 0.00279735 0.514595
thorax 5.67851 -0.187972 2.05036
lowerneck -19.388 -0.800423 0.526291
upperneck 26.8294 -2.32598 1.98817
head 12.0771 -0.867465 0.255003
rclavicle 1.05185e-014 1.59028e-015
rhumerus -37.4347 4.98014 -86.0875
rradius 31.622
rwrist -8.07102
rhand -19.3114 -19.7766
rfingers 7.12502
rthumb 7.00455 -49.6407
lclavicle 1.05185e-014 1.59028e-015
lhumerus -40.6469 -14.9412 92.7797
lradius 34.3461
lwrist 41.4586
lhand -33.0218 1.36786
lfingers 7.12502
lthumb -6.23521 31.2561
rfemur -38.6779 16.6649 19.7184
rtibia 40.8096
rfoot -17.1644 -15.9495
rtoes -0.742004
lfemur -27.5786 -10.3452 -24.0487
ltibia 17.926
lfoot -8.06396 7.31549
ltoes -4.35293
255
root 2.71008 15.3919 32.535 185.105 -86.2874 -164.665
lowerback -21.3005 -0.0680969 -2.5996
upperback -5.67031 0.0211724 0.586977
thorax 5.70958 -0.179889 2.10353
lowerneck -19.3964 -0.779313 0.546728
upperneck 26.8889 -2.30261 1.97248
head 12.1014 -0.857245 0.249142
rclavicle 8.51202e-015 2.68359e-015
rhumerus -37.3859 5.14182 -86.1341
rradius 31.7777
rwrist -8.19732
rhand -19.2826 -19.8125
rfingers 7.12502
rthumb 7.03235 -49.6757
lclavicle 8.51202e-015 2.68359e-015
lhumerus -40.6883 -15.3256 93.0669
lradius 34.501
lwrist 41.5122
lhand -32.6936 1.3755
lfingers 7.12502
lthumb -5.91844 31.2728
rfemur -38.4706 17.084 19.7774
rtibia 40.4701
rfoot -16.9953 -16.2253
rtoes -0.588288
lfemur -27.5088 -10.5353 -23.8173
ltibia 17.8854
lfoot -8.04512 7.6296
ltoes -4.37211
